<svg xmlns="http://www.w3.org/2000/svg" width="231" height="81" viewBox="0 0 231 81">
  <g fill="none" fill-rule="evenodd">
    <path fill="#6ECFF6" d="M54.0516,62.3625 C52.4486,58.9915 50.3286,55.2755 47.9396,51.4795 C44.2566,54.1345 39.7286,55.7075 34.8356,55.7075 C29.9446,55.7075 25.4186,54.1345 21.7386,51.4815 C19.3466,55.2775 17.2266,58.9935 15.6236,62.3645 C21.1346,65.9895 27.7386,68.1075 34.8356,68.1075 C41.9346,68.1075 48.5386,65.9875 54.0516,62.3625"/>
    <path fill="#00ABE8" d="M39.3597,0.0002 C48.2467,12.0652 57.1557,26.4582 57.1557,33.5942 C57.1557,36.1132 56.7217,38.5342 55.9347,40.7942 C49.2187,30.6942 42.0687,22.0292 39.6327,19.1482 L34.8357,13.4762 L30.0397,19.1482 C27.6047,22.0292 20.4517,30.6942 13.7377,40.7942 C12.9517,38.5342 12.5167,36.1132 12.5167,33.5942 C12.5167,26.4672 21.4277,12.0712 30.3167,0.0002 L14.9647,0.0002 C7.4057,11.0992 0.0007,24.3292 0.0007,33.5942 C0.0007,40.9052 2.3147,47.6912 6.2467,53.2792 C8.7667,56.8582 11.9497,59.9472 15.6237,62.3642 C17.2267,58.9932 19.3457,55.2782 21.7377,51.4812 C25.7317,45.1392 30.4817,38.5712 34.8377,33.0162 C39.1927,38.5692 43.9427,45.1352 47.9387,51.4792 C50.3307,55.2762 52.4507,58.9922 54.0517,62.3622 C57.7247,59.9452 60.9067,56.8582 63.4267,53.2792 C67.3567,47.6912 69.6717,40.9052 69.6717,33.5942 C69.6717,24.3292 62.2677,11.0992 54.7067,0.0002 L39.3597,0.0002 Z"/>
    <path fill="#6ECFF6" d="M55.4061 81.1418L68.5811 81.1418C69.2931 78.3988 69.6721 75.5228 69.6721 72.5608 69.6721 67.0978 67.0901 60.2508 63.4261 53.2788 60.9061 56.8588 57.7241 59.9478 54.0511 62.3628 55.9761 66.4128 57.1561 69.9678 57.1561 72.5608 57.1561 75.6038 56.5321 78.5028 55.4061 81.1418M14.266 81.1418C13.14 78.5028 12.516 75.6038 12.516 72.5608 12.516 69.9698 13.696 66.4168 15.623 62.3648 11.95 59.9478 8.766 56.8608 6.246 53.2788 2.582 60.2508 0 67.0978 0 72.5608 0 75.5228.38 78.3988 1.091 81.1418L14.266 81.1418z"/>
    <path fill="#909E9E" d="M92.4085 63.7844L92.4765 63.5164 91.1545 63.5164 91.3665 62.6754 94.9965 62.6754 94.7945 63.5164 93.8755 63.5164 93.1035 66.5064 92.2745 66.5064 92.1845 65.5214C91.7375 66.1594 91.0425 66.6074 90.1345 66.6074 88.4085 66.6074 87.4465 65.2634 87.4465 63.5264 87.4465 61.2294 89.1035 58.8794 91.5685 58.8794 92.4985 58.8794 93.1935 59.2154 93.5735 59.7854L94.0335 58.9124 94.8955 58.9124 94.1895 61.7784 93.2945 61.7784C93.1695 60.1774 92.4765 59.6954 91.6125 59.6954 89.6305 59.6954 88.9485 62.3844 88.9485 63.6044 88.9485 65.1964 89.7085 65.7224 90.4595 65.7224 91.4455 65.7224 92.1275 64.8944 92.4085 63.7844M96.4842 62.7991C96.6532 62.1601 96.6182 61.9811 96.4162 61.9811 96.1592 61.9811 95.8682 62.4631 95.5432 63.1581L95.0172 62.9331C95.4992 61.8141 96.0592 61.1631 96.8092 61.1631 97.2912 61.1631 97.6272 61.5111 97.6272 62.2041 97.6272 62.5311 97.5592 62.9221 97.4032 63.4151L97.4932 63.4471C98.1422 61.9701 98.6792 61.1521 99.4642 61.1521 99.9342 61.1521 100.2822 61.4771 100.2822 62.0031 100.2822 62.5641 99.9222 63.0121 99.4752 63.0121 99.0832 63.0121 98.7802 62.7531 98.8022 62.2831 98.4782 62.4171 97.6712 63.3711 96.8652 66.4281L95.5212 66.4281 96.4842 62.7991zM101.5921 63.7961C103.1491 63.6271 103.7211 63.0231 103.7211 62.3291 103.7211 62.0141 103.5411 61.7681 103.2061 61.7681 102.4211 61.7681 101.8261 62.8331 101.5921 63.7961M101.4911 64.3221C101.4801 64.4121 101.4801 64.5021 101.4801 64.5791 101.4801 65.5111 101.9621 65.8011 102.5221 65.8011 103.0721 65.8011 103.6201 65.4321 104.0901 64.7701L104.5611 65.1061C103.9891 65.9251 103.2961 66.5401 102.1071 66.5401 100.9541 66.5401 100.1471 65.7341 100.1471 64.5021 100.1471 62.7761 101.6361 61.1531 103.3951 61.1531 104.3591 61.1531 104.8971 61.6341 104.8971 62.3171 104.8971 63.3251 103.8441 64.1891 101.4911 64.3221M108.9735 62.7766C108.9735 62.1936 108.7605 61.8806 108.3685 61.8806 107.3725 61.8806 106.7105 63.7396 106.7105 64.6466 106.7105 65.3086 106.9455 65.6446 107.3595 65.6446 108.2675 65.6446 108.9735 63.6846 108.9735 62.7766zM109.8355 64.7046C109.7475 64.9956 109.7125 65.1956 109.7125 65.3416 109.7125 65.5336 109.8025 65.6336 109.9715 65.6336 110.2165 65.6336 110.4625 65.2526 110.7215 64.5026L111.2585 64.6716C110.8225 66.0356 110.2165 66.5396 109.5325 66.5396 109.0065 66.5396 108.6155 66.2046 108.6155 65.5546 108.6155 65.4756 108.6155 65.4216 108.6265 65.3086L108.5475 65.2746C108.1225 66.1146 107.4845 66.5396 106.8465 66.5396 105.8815 66.5396 105.3545 65.7456 105.3545 64.7586 105.3545 63.6166 105.8155 62.5966 106.4185 62.0046 106.9455 61.4646 107.5395 61.1536 108.1665 61.1536 108.7935 61.1536 109.1535 61.5886 109.2535 62.0916L109.4775 61.2306 110.7545 61.2306 109.8355 64.7046zM113.9413 62.0705L113.2703 64.5245C113.1913 64.8045 113.1343 65.0615 113.1343 65.1955 113.1343 65.4985 113.2923 65.5985 113.5273 65.5985 113.9303 65.5985 114.2663 65.1055 114.5793 64.3905L115.1173 64.5685C114.5683 66.1605 113.7073 66.5405 113.1013 66.5405 112.3623 66.5405 111.8363 66.1715 111.8363 65.4085 111.8363 65.0845 111.9593 64.6145 112.0383 64.3005L112.6413 62.0705 111.6563 62.0705 111.8363 61.3865 112.8213 61.3865 113.1913 60.0445 114.5243 59.8975 114.1213 61.3865 115.7113 61.3865 115.5313 62.0705 113.9413 62.0705zM123.5296 59.0578L123.3286 59.8858 122.1526 59.8858 120.7286 65.5988 122.0506 65.5988C123.1036 65.5988 123.3286 65.1958 124.0666 63.6388L124.7616 63.6388 124.0666 66.4278 117.9966 66.4278 118.1856 65.5878 119.3166 65.5878 120.7286 59.8978 119.5876 59.8978 119.7996 59.0578 123.5296 59.0578zM128.9837 62.7766C128.9837 62.1936 128.7707 61.8806 128.3787 61.8806 127.3827 61.8806 126.7207 63.7396 126.7207 64.6466 126.7207 65.3086 126.9557 65.6446 127.3707 65.6446 128.2777 65.6446 128.9837 63.6846 128.9837 62.7766zM129.8457 64.7046C129.7557 64.9956 129.7227 65.1956 129.7227 65.3416 129.7227 65.5336 129.8127 65.6336 129.9817 65.6336 130.2267 65.6336 130.4727 65.2526 130.7317 64.5026L131.2687 64.6716C130.8327 66.0356 130.2267 66.5396 129.5437 66.5396 129.0167 66.5396 128.6247 66.2046 128.6247 65.5546 128.6247 65.4756 128.6247 65.4216 128.6367 65.3086L128.5577 65.2746C128.1327 66.1146 127.4927 66.5396 126.8547 66.5396 125.8917 66.5396 125.3657 65.7456 125.3657 64.7586 125.3657 63.6166 125.8237 62.5966 126.4287 62.0046 126.9557 61.4646 127.5497 61.1536 128.1767 61.1536 128.8037 61.1536 129.1637 61.5886 129.2637 62.0916L129.4887 61.2306 130.7647 61.2306 129.8457 64.7046zM135.7484 65.633C135.9944 65.633 136.2074 65.276 136.4984 64.501L137.0244 64.67C136.6004 66.026 136.0184 66.541 135.3674 66.541 134.7394 66.541 134.3254 66.126 134.3254 65.399 134.3254 65.085 134.4484 64.635 134.4484 64.39 134.4484 63.975 134.2704 63.874 133.4524 63.874L133.4294 63.874 132.7464 66.429 131.4804 66.429 133.2954 59.585 132.3644 59.585 132.5894 58.71 134.8184 58.71 133.5644 63.37 133.6194 63.37C134.2134 63.37 134.4594 63.034 134.9524 62.216 135.3234 61.612 135.6914 61.153 136.3534 61.153 136.8914 61.153 137.1834 61.488 137.1834 61.971 137.1834 62.441 136.8804 62.911 136.4204 62.911 135.9724 62.911 135.7374 62.519 135.8944 62.059 135.7374 62.094 135.5684 62.284 135.3114 62.71 135.0864 63.124 134.9084 63.359 134.5734 63.538 135.3674 63.607 135.6254 63.953 135.6254 64.48 135.6254 64.804 135.5354 65.129 135.5354 65.33 135.5354 65.554 135.6254 65.633 135.7484 65.633M138.9369 63.7961C140.4949 63.6271 141.0669 63.0231 141.0669 62.3291 141.0669 62.0141 140.8869 61.7681 140.5509 61.7681 139.7659 61.7681 139.1719 62.8331 138.9369 63.7961M138.8359 64.3221C138.8259 64.4121 138.8259 64.5021 138.8259 64.5791 138.8259 65.5111 139.3079 65.8011 139.8679 65.8011 140.4169 65.8011 140.9649 65.4321 141.4349 64.7701L141.9069 65.1061C141.3339 65.9251 140.6409 66.5401 139.4529 66.5401 138.2989 66.5401 137.4929 65.7341 137.4929 64.5021 137.4929 62.7761 138.9829 61.1531 140.7399 61.1531 141.7049 61.1531 142.2419 61.6341 142.2419 62.3171 142.2419 63.3251 141.1899 64.1891 138.8359 64.3221M144.6165 66.5403C143.5635 66.5403 142.4755 66.0933 142.4755 65.2413 142.4755 64.8043 142.7675 64.4353 143.2155 64.4353 143.6535 64.4353 143.8775 64.7483 143.8775 65.0513 143.8775 65.3183 143.7545 65.5423 143.6075 65.6673 143.7985 65.8343 144.1685 65.9573 144.5705 65.9573 145.1415 65.9573 145.5025 65.6783 145.5025 65.1633 145.5025 64.7373 145.0415 64.5243 144.4705 64.2663 143.8085 63.9643 143.1595 63.6393 143.1595 62.8783 143.1595 61.7003 144.2915 61.1523 145.2645 61.1523 146.4075 61.1523 147.1925 61.6563 147.1925 62.3273 147.1925 62.7663 146.9005 63.1353 146.4755 63.1353 146.0605 63.1353 145.8135 62.8433 145.8135 62.5193 145.8135 62.2953 145.9275 62.0603 146.0835 61.9263 145.9705 61.8253 145.6465 61.7113 145.3105 61.7113 144.7715 61.7113 144.3815 61.9923 144.3815 62.4633 144.3815 62.9113 144.8505 63.1233 145.5025 63.4263 146.0945 63.6953 146.7345 64.0103 146.7345 64.7813 146.7345 65.9463 145.7255 66.5403 144.6165 66.5403"/>
    <polygon fill="#909E9E" points="154.61 62.003 152.022 66.475 150.735 66.475 150.297 59.899 149.312 59.899 149.513 59.056 152.884 59.056 152.682 59.887 151.72 59.887 151.955 65.017 152.011 65.017 154.531 60.681 154.499 59.887 153.523 59.887 153.724 59.056 157.097 59.056 156.895 59.887 155.865 59.887 156.033 65.017 156.089 65.017 158.8 59.887 157.847 59.887 158.048 59.056 160.795 59.056 160.582 59.899 159.818 59.899 156.134 66.475 154.823 66.475"/>
    <path fill="#909E9E" d="M162.4935 62.7766C162.4935 62.1936 162.2805 61.8806 161.8885 61.8806 160.8925 61.8806 160.2305 63.7396 160.2305 64.6466 160.2305 65.3086 160.4655 65.6446 160.8795 65.6446 161.7875 65.6446 162.4935 63.6846 162.4935 62.7766zM163.3555 64.7046C163.2675 64.9956 163.2325 65.1956 163.2325 65.3416 163.2325 65.5336 163.3225 65.6336 163.4915 65.6336 163.7365 65.6336 163.9825 65.2526 164.2415 64.5026L164.7785 64.6716C164.3425 66.0356 163.7365 66.5396 163.0535 66.5396 162.5265 66.5396 162.1365 66.2046 162.1365 65.5546 162.1365 65.4756 162.1365 65.4216 162.1465 65.3086L162.0675 65.2746C161.6425 66.1146 161.0045 66.5396 160.3665 66.5396 159.4015 66.5396 158.8755 65.7456 158.8755 64.7586 158.8755 63.6166 159.3355 62.5966 159.9385 62.0046 160.4655 61.4646 161.0585 61.1536 161.6865 61.1536 162.3135 61.1536 162.6735 61.5886 162.7735 62.0916L162.9975 61.2306 164.2745 61.2306 163.3555 64.7046zM167.5111 62.0705L166.8371 64.5245C166.7611 64.8045 166.7031 65.0615 166.7031 65.1955 166.7031 65.4985 166.8621 65.5985 167.0961 65.5985 167.4991 65.5985 167.8351 65.1055 168.1491 64.3905L168.6861 64.5685C168.1381 66.1605 167.2761 66.5405 166.6711 66.5405 165.9321 66.5405 165.4061 66.1715 165.4061 65.4085 165.4061 65.0845 165.5291 64.6145 165.6071 64.3005L166.2101 62.0705 165.2261 62.0705 165.4061 61.3865 166.3901 61.3865 166.7611 60.0445 168.0941 59.8975 167.6911 61.3865 169.2811 61.3865 169.1011 62.0705 167.5111 62.0705zM170.7581 63.7961C172.3151 63.6271 172.8871 63.0231 172.8871 62.3291 172.8871 62.0141 172.7071 61.7681 172.3721 61.7681 171.5871 61.7681 170.9921 62.8331 170.7581 63.7961M170.6571 64.3221C170.6461 64.4121 170.6461 64.5021 170.6461 64.5791 170.6461 65.5111 171.1281 65.8011 171.6881 65.8011 172.2371 65.8011 172.7861 65.4321 173.2561 64.7701L173.7271 65.1061C173.1541 65.9251 172.4621 66.5401 171.2741 66.5401 170.1191 66.5401 169.3131 65.7341 169.3131 64.5021 169.3131 62.7761 170.8041 61.1531 172.5611 61.1531 173.5261 61.1531 174.0631 61.6341 174.0631 62.3171 174.0631 63.3251 173.0101 64.1891 170.6571 64.3221M175.8763 62.7991C176.0453 62.1601 176.0103 61.9811 175.8093 61.9811 175.5523 61.9811 175.2603 62.4631 174.9363 63.1581L174.4093 62.9331C174.8923 61.8141 175.4503 61.1631 176.2003 61.1631 176.6833 61.1631 177.0193 61.5111 177.0193 62.2041 177.0193 62.5311 176.9513 62.9221 176.7953 63.4151L176.8853 63.4471C177.5343 61.9701 178.0713 61.1521 178.8563 61.1521 179.3263 61.1521 179.6743 61.4771 179.6743 62.0031 179.6743 62.5641 179.3143 63.0121 178.8673 63.0121 178.4753 63.0121 178.1723 62.7531 178.1943 62.2831 177.8693 62.4171 177.0633 63.3711 176.2583 66.4281L174.9133 66.4281 175.8763 62.7991zM185.8431 63.1916L185.6091 60.2346 185.5631 60.2346 183.8501 63.1916 185.8431 63.1916zM186.0331 65.5876L185.8981 63.9416 183.4221 63.9416 182.4591 65.5876 183.3891 65.5876 183.1881 66.4276 180.4451 66.4276 180.6561 65.5876 181.4291 65.5876 185.4061 59.0136 186.7831 59.0136 187.4551 65.5876 188.4421 65.5876 188.2291 66.4276 184.7691 66.4276 184.9681 65.5876 186.0331 65.5876zM192.4847 65.4875C192.4847 65.2075 192.5517 64.7815 192.7297 64.2115L192.6527 64.1765C191.9137 65.8005 191.1297 66.5405 190.3217 66.5405 189.7057 66.5405 189.3017 66.0595 189.3017 65.3645 189.3017 64.4245 190.0977 62.9325 190.0977 62.2955 190.0977 62.1365 190.0307 62.0595 189.9297 62.0595 189.6947 62.0595 189.5047 62.3055 189.1007 63.1455L188.5747 62.9225C189.0347 61.8145 189.6277 61.1525 190.4007 61.1525 190.9957 61.1525 191.3417 61.5225 191.3417 62.1725 191.3417 63.2145 190.6027 64.4005 190.6027 65.1175 190.6027 65.4305 190.7257 65.5555 190.9167 65.5555 191.4207 65.5555 192.3497 64.7265 193.2687 61.2315L194.6137 61.2315 193.6947 64.7025C193.6047 65.0055 193.5717 65.1965 193.5717 65.3415 193.5717 65.5315 193.6717 65.6335 193.8287 65.6335 194.0877 65.6335 194.3217 65.2515 194.5787 64.5015L195.1177 64.6705C194.6787 66.0365 194.0767 66.5405 193.4357 66.5405 192.8547 66.5405 192.4847 66.2165 192.4847 65.4875M197.9378 62.0705L197.2668 64.5245C197.1878 64.8045 197.1308 65.0615 197.1308 65.1955 197.1308 65.4985 197.2898 65.5985 197.5238 65.5985 197.9268 65.5985 198.2628 65.1055 198.5768 64.3905L199.1138 64.5685C198.5658 66.1605 197.7038 66.5405 197.0978 66.5405 196.3588 66.5405 195.8328 66.1715 195.8328 65.4085 195.8328 65.0845 195.9558 64.6145 196.0348 64.3005L196.6398 62.0705 195.6528 62.0705 195.8328 61.3865 196.8178 61.3865 197.1878 60.0445 198.5218 59.8975 198.1178 61.3865 199.7088 61.3865 199.5298 62.0705 197.9378 62.0705zM202.9447 65.4993C202.9447 64.3793 203.6837 63.2693 203.6837 62.5083 203.6837 62.2493 203.5717 62.1383 203.3817 62.1383 202.8657 62.1383 201.8237 62.9883 200.9047 66.4293L199.5607 66.4293 201.3767 59.5853 200.4467 59.5853 200.6707 58.7103 202.9007 58.7103 201.4767 63.4813 201.5537 63.5173C202.2847 61.9253 203.1787 61.1523 203.9747 61.1523 204.6017 61.1523 204.9947 61.6443 204.9947 62.3173 204.9947 63.2693 204.1657 64.7033 204.1657 65.3863 204.1657 65.5543 204.2337 65.6333 204.3567 65.6333 204.5907 65.6333 204.8257 65.2753 205.1287 64.5013L205.6547 64.6703C205.2077 66.0253 204.5807 66.5413 203.9417 66.5413 203.3377 66.5413 202.9447 66.1483 202.9447 65.4993M209.0814 61.7678C208.0404 61.7678 207.4454 63.8078 207.4454 64.8928 207.4454 65.6108 207.7484 65.9138 208.2304 65.9138 209.2724 65.9138 209.8664 63.8728 209.8664 62.7888 209.8664 62.0708 209.5634 61.7678 209.0814 61.7678M211.2004 63.3138C211.2004 65.0618 209.7994 66.5398 208.2414 66.5398 206.9544 66.5398 206.1124 65.6318 206.1124 64.3678 206.1124 62.6198 207.5144 61.1518 209.0704 61.1518 210.3584 61.1518 211.2004 62.0488 211.2004 63.3138M213.0794 62.7991C213.2484 62.1601 213.2134 61.9811 213.0124 61.9811 212.7554 61.9811 212.4634 62.4631 212.1394 63.1581L211.6124 62.9331C212.0954 61.8141 212.6544 61.1631 213.4044 61.1631 213.8874 61.1631 214.2224 61.5111 214.2224 62.2041 214.2224 62.5311 214.1544 62.9221 213.9984 63.4151L214.0884 63.4471C214.7374 61.9701 215.2744 61.1521 216.0594 61.1521 216.5294 61.1521 216.8784 61.4771 216.8784 62.0031 216.8784 62.5641 216.5184 63.0121 216.0704 63.0121 215.6784 63.0121 215.3764 62.7531 215.3994 62.2831 215.0734 62.4171 214.2664 63.3711 213.4614 66.4281L212.1164 66.4281 213.0794 62.7991zM219.4193 60.3684C219.0263 60.3684 218.7243 60.0984 218.7243 59.6514 218.7243 59.1914 219.0723 58.6654 219.6643 58.6654 220.0903 58.6654 220.3823 58.9344 220.3823 59.3824 220.3823 59.8294 220.0133 60.3684 219.4193 60.3684M218.8823 65.3644C218.8823 65.5554 218.9603 65.6344 219.1063 65.6344 219.3183 65.6344 219.5643 65.3314 219.9013 64.5024L220.4283 64.6714C219.9893 65.9914 219.3623 66.5404 218.6453 66.5404 218.0643 66.5404 217.6383 66.1604 217.6383 65.4874 217.6383 64.4244 218.5673 62.9224 218.5673 62.2284 218.5673 62.0494 218.5003 61.9804 218.3993 61.9804 218.0863 61.9804 217.8053 62.4634 217.4913 63.1584L216.9543 62.9324C217.4373 61.8134 218.0283 61.1514 218.7923 61.1514 219.3753 61.1514 219.7873 61.5684 219.7873 62.2834 219.7873 63.1584 218.8823 64.7154 218.8823 65.3644M223.3724 62.0705L222.6994 64.5245C222.6224 64.8045 222.5654 65.0615 222.5654 65.1955 222.5654 65.4985 222.7234 65.5985 222.9584 65.5985 223.3614 65.5985 223.6964 65.1055 224.0114 64.3905L224.5484 64.5685C223.9994 66.1605 223.1384 66.5405 222.5324 66.5405 221.7934 66.5405 221.2674 66.1715 221.2674 65.4085 221.2674 65.0845 221.3904 64.6145 221.4694 64.3005L222.0724 62.0705 221.0874 62.0705 221.2674 61.3865 222.2524 61.3865 222.6224 60.0445 223.9554 59.8975 223.5524 61.3865 225.1424 61.3865 224.9624 62.0705 223.3724 62.0705zM227.7855 62.1272C227.7855 63.1572 227.1365 64.1662 227.1365 64.8152 227.1365 65.0962 227.2595 65.2082 227.5045 65.2082 228.0985 65.2082 228.8945 64.5352 229.7455 61.2312L231.0005 61.2312 229.9695 65.5552C229.4865 67.6162 228.3555 68.3332 226.9565 68.3332 226.1715 68.3332 225.2305 68.1202 225.2305 67.2912 225.2305 66.9342 225.5005 66.4842 226.0045 66.4842 226.4515 66.4842 226.6755 66.7982 226.6535 67.1682 226.6425 67.3472 226.5415 67.5482 226.4305 67.6492 226.5635 67.6942 226.7325 67.7282 226.9455 67.7282 227.8175 67.7282 228.4125 67.0222 228.7935 65.4652L229.0175 64.5812 228.9495 64.5462C228.3005 65.7342 227.6055 66.1712 226.9565 66.1712 226.2175 66.1712 225.8475 65.6552 225.8475 65.0062 225.8475 64.1432 226.5635 62.9322 226.5635 62.2962 226.5635 62.1492 226.4955 62.0592 226.3945 62.0592 226.1165 62.0592 225.8475 62.5202 225.5445 63.1572L225.0175 62.9322C225.5115 61.8142 226.1275 61.1532 226.8665 61.1532 227.4385 61.1532 227.7855 61.5332 227.7855 62.1272"/>
    <path fill="#235D7F" d="M81.9037,33.593 C81.9037,22.08 90.6347,14.768 101.3287,14.768 C108.8607,14.768 113.6067,18.588 116.3357,22.898 L109.9517,26.39 C108.2587,23.825 105.1487,21.643 101.3287,21.643 C94.6737,21.643 89.8707,26.718 89.8707,33.593 C89.8707,40.469 94.6737,45.543 101.3287,45.543 C104.5497,45.543 107.5497,44.123 109.0237,42.761 L109.0237,38.395 L99.4197,38.395 L99.4197,31.629 L116.7717,31.629 L116.7717,45.598 C113.0627,49.744 107.8777,52.418 101.3287,52.418 C90.6347,52.418 81.9037,45.052 81.9037,33.593"/>
    <polygon fill="#235D7F" points="123.704 51.764 123.704 15.368 131.506 15.368 131.506 44.944 146.894 44.944 146.894 51.764"/>
    <polygon fill="#235D7F" points="189.854 15.376 182.424 39.661 174.392 15.308 174.38 15.273 167.511 15.273 159.467 39.661 152.049 15.413 152.039 15.376 143.435 15.376 155.763 51.737 155.774 51.772 162.745 51.772 170.843 28.298 178.929 51.737 178.94 51.772 185.911 51.772 198.227 15.442 198.25 15.376"/>
    <path fill="#235D7F" d="M222.2015,51.7639 L219.9085,45.5979 L204.3045,45.5979 L202.0125,51.7639 L193.2265,51.7639 L207.2495,15.3679 L216.9635,15.3679 L230.9855,51.7639 L222.2015,51.7639 Z M212.1055,23.1169 L206.4305,38.7769 L217.7815,38.7769 L212.1055,23.1169 Z"/>
  </g>
</svg>
